<?xml version="1.0" encoding="utf-8"?>
<!DOCTYPE svg PUBLIC "-//W3C//DTD SVG 1.1//EN" "http://www.w3.org/Graphics/SVG/1.1/DTD/svg11.dtd">
<svg version="1.1" xmlns="http://www.w3.org/2000/svg" xmlns:xlink="http://www.w3.org/1999/xlink" x="0px" y="0px" width="618px" height="618px" viewBox="0 0 6180 6180" preserveAspectRatio="xMidYMid meet">
<g id="layer101" fill="#101010" fill-rule="evenodd">
<path d="M2724 5855 C2606 5840,2541 5820,2610 5820 C2629 5820,2672 5827,2705 5835 C2738 5843,2810 5849,2865 5849 C2920 5850,2970 5854,2977 5860 C2996 5875,2859 5872,2724 5855 " />
<path d="M3290 5841 C3290 5836,3299 5829,3312 5826 C3358 5814,3320 5813,3190 5822 C3115 5827,3039 5832,3020 5832 C2948 5831,2722 5809,2655 5796 C2572 5780,2496 5768,2525 5776 C2565 5787,2566 5802,2526 5795 C2504 5791,2480 5782,2472 5774 C2456 5757,2433 5755,2424 5770 C2421 5775,2414 5777,2409 5774 C2403 5771,2401 5765,2404 5761 C2406 5757,2372 5744,2329 5733 C2268 5717,2250 5715,2250 5725 C2250 5735,2231 5732,2174 5715 C2132 5702,2095 5689,2092 5685 C2080 5674,2099 5667,2113 5678 C2120 5684,2129 5686,2133 5683 C2136 5679,2111 5666,2077 5652 C2043 5639,1983 5615,1945 5598 C1827 5546,1787 5531,1725 5513 C1654 5493,1642 5485,1657 5467 C1666 5457,1659 5449,1626 5433 C1543 5391,1520 5381,1520 5390 C1520 5407,1503 5400,1463 5368 C1436 5346,1431 5339,1447 5344 C1480 5354,1475 5346,1427 5313 C1330 5247,1179 5119,1145 5074 C1129 5052,1097 5016,1075 4994 C996 4916,827 4714,811 4679 C795 4645,766 4599,668 4451 C641 4411,620 4371,620 4363 C620 4336,578 4267,559 4262 C547 4259,533 4237,521 4206 C510 4178,498 4147,494 4137 C490 4127,492 4120,497 4120 C503 4120,513 4133,520 4150 C540 4199,550 4194,533 4142 C525 4116,514 4086,509 4075 C477 3999,438 3884,424 3825 C415 3786,404 3750,401 3745 C398 3739,385 3699,373 3655 C361 3611,344 3550,335 3520 C311 3434,294 3038,309 2902 C315 2843,324 2757,329 2712 C339 2625,345 2606,360 2615 C365 2618,369 2615,369 2608 C369 2600,380 2554,394 2505 C407 2455,430 2365,445 2305 C460 2244,483 2179,496 2160 C509 2141,520 2117,520 2108 C520 2091,566 1975,580 1955 C584 1949,604 1904,624 1855 C669 1744,697 1696,769 1600 C800 1558,837 1506,852 1484 C883 1438,967 1353,974 1361 C977 1364,949 1410,912 1464 C804 1621,752 1704,700 1808 C657 1895,677 1877,741 1773 C771 1726,817 1650,845 1604 C902 1512,1015 1369,1031 1369 C1038 1369,1036 1377,1028 1388 C1021 1399,977 1458,931 1521 C885 1583,836 1657,823 1685 C810 1712,782 1759,760 1790 C738 1820,720 1850,720 1857 C720 1864,697 1916,670 1972 C626 2064,616 2087,610 2112 C590 2193,564 2270,544 2316 C502 2410,490 2457,474 2600 C466 2674,455 2760,449 2791 C444 2822,437 2903,434 2971 C432 3039,427 3146,423 3210 C417 3329,425 3417,461 3610 C486 3745,496 3785,520 3837 C531 3860,539 3884,539 3890 C539 3896,546 3913,553 3927 C572 3965,582 4010,571 4010 C566 4010,555 3990,545 3967 C507 3875,491 3833,478 3790 C471 3765,457 3729,448 3710 C430 3675,430 3675,436 3710 C440 3729,458 3787,477 3840 C495 3892,520 3965,532 4002 C546 4050,557 4069,566 4065 C574 4062,579 4065,579 4070 C579 4076,586 4079,594 4077 C602 4076,608 4078,608 4083 C608 4088,612 4095,617 4098 C629 4107,661 4188,665 4221 C668 4245,685 4280,727 4345 C734 4356,744 4374,749 4385 C754 4396,766 4414,776 4425 C798 4448,848 4522,868 4561 C876 4576,913 4627,950 4674 C988 4721,1021 4768,1024 4778 C1035 4813,1323 5086,1415 5148 C1464 5181,1525 5228,1550 5252 C1574 5275,1614 5307,1637 5322 C1660 5337,1679 5351,1680 5354 C1680 5369,1645 5355,1584 5315 C1506 5263,1470 5253,1542 5302 C1590 5335,1607 5359,1567 5338 C1527 5317,1480 5278,1485 5269 C1487 5265,1475 5250,1457 5237 C1439 5223,1415 5203,1404 5193 C1362 5154,1233 5042,1205 5019 C1188 5005,1161 4979,1145 4961 C1048 4854,985 4790,976 4790 C970 4790,954 4777,941 4762 C917 4735,917 4735,935 4765 C973 4827,1094 4960,1169 5020 C1193 5039,1220 5063,1229 5073 C1323 5182,1577 5372,1782 5487 C1830 5514,1979 5579,2040 5600 C2075 5612,2112 5626,2122 5631 C2133 5636,2148 5643,2158 5645 C2167 5647,2213 5661,2260 5675 C2446 5733,2424 5720,2153 5616 C1894 5516,1825 5486,1815 5471 C1807 5457,1825 5456,1850 5470 C1865 5478,1868 5477,1864 5466 C1852 5436,1881 5440,1935 5475 C2044 5544,2261 5636,2283 5622 C2301 5611,2340 5619,2410 5650 C2445 5665,2493 5681,2515 5685 C2537 5689,2559 5697,2565 5704 C2582 5726,2918 5751,2905 5730 C2900 5723,2962 5719,3081 5718 C3182 5718,3278 5716,3295 5714 C3353 5707,3465 5688,3495 5680 C3511 5675,3545 5669,3570 5666 C3702 5650,3861 5605,4010 5539 C4056 5519,4122 5492,4155 5479 C4293 5426,4434 5349,4480 5301 C4522 5255,4587 5209,4606 5210 C4611 5210,4599 5224,4580 5240 C4561 5256,4549 5272,4552 5276 C4560 5283,4590 5258,4742 5116 C4801 5061,4850 5010,4850 5003 C4850 4996,4861 4978,4874 4963 C4907 4925,4907 4951,4874 5008 C4846 5059,4846 5068,4877 5039 C4889 5028,4904 5020,4912 5020 C4927 5020,5066 4876,5150 4775 C5182 4736,5223 4675,5242 4640 C5261 4604,5292 4549,5313 4518 C5337 4480,5345 4460,5337 4457 C5327 4454,5328 4449,5338 4436 C5346 4427,5356 4422,5361 4425 C5368 4430,5460 4252,5460 4235 C5460 4232,5482 4184,5509 4127 C5537 4070,5562 4007,5566 3989 C5569 3970,5577 3949,5582 3942 C5588 3935,5589 3930,5586 3930 C5582 3930,5587 3913,5595 3892 C5604 3871,5619 3823,5629 3785 C5639 3746,5654 3690,5663 3660 C5700 3531,5711 3369,5707 3045 C5705 2874,5700 2725,5697 2713 C5694 2701,5682 2658,5671 2618 C5660 2577,5646 2509,5640 2465 C5630 2388,5618 2337,5600 2295 C5595 2284,5589 2266,5586 2255 C5577 2218,5523 2076,5497 2019 C5439 1893,5360 1733,5345 1715 C5296 1651,5214 1537,5214 1531 C5210 1473,5069 1315,4854 1128 C4799 1080,4741 1029,4725 1014 C4671 967,4556 884,4490 845 C4454 824,4413 799,4400 790 C4321 737,3986 587,3885 560 C3616 487,3458 448,3453 453 C3451 455,3421 451,3387 444 C3332 433,3244 428,3050 426 C2970 425,2789 439,2744 450 C2722 455,2681 459,2652 459 C2601 459,2504 478,2432 501 C2414 506,2387 513,2372 515 C2357 517,2298 533,2242 552 C2186 571,2140 583,2140 579 C2139 549,2321 481,2470 455 C2522 446,2587 432,2615 425 C2642 417,2710 408,2765 405 C2820 401,2885 395,2910 391 C2974 382,3313 389,3390 401 C3425 406,3468 413,3485 415 C3501 418,3578 435,3655 455 C3732 475,3804 492,3815 494 C3853 500,3955 532,3975 545 C3986 553,4037 575,4090 594 C4176 627,4323 691,4425 740 C4458 756,4555 821,4659 897 C4741 957,4948 1136,5063 1248 C5158 1340,5264 1481,5342 1620 C5356 1644,5378 1676,5390 1690 C5424 1728,5474 1808,5504 1875 C5553 1982,5621 2164,5625 2197 C5628 2226,5649 2302,5667 2350 C5670 2358,5674 2369,5675 2375 C5677 2380,5685 2407,5694 2435 C5714 2500,5764 2793,5779 2940 C5797 3110,5799 3110,5794 2940 C5792 2843,5782 2741,5769 2670 C5738 2498,5665 2212,5635 2145 C5618 2106,5612 2083,5619 2076 C5625 2070,5633 2076,5640 2095 C5672 2180,5683 2211,5701 2280 C5711 2321,5723 2361,5726 2370 C5730 2378,5732 2388,5731 2393 C5730 2398,5733 2407,5738 2413 C5751 2428,5784 2593,5805 2739 C5823 2872,5831 3279,5815 3280 C5809 3280,5802 3254,5799 3222 C5794 3165,5794 3165,5787 3215 C5783 3242,5776 3321,5771 3390 C5766 3458,5759 3521,5756 3530 C5753 3538,5748 3561,5745 3582 C5736 3646,5691 3842,5670 3909 C5656 3954,5653 3977,5660 3986 C5671 3998,5650 4053,5632 4061 C5624 4065,5557 4198,5485 4354 C5460 4408,5404 4505,5362 4569 C5320 4632,5285 4687,5285 4690 C5284 4697,5171 4877,5139 4921 C5107 4965,5061 5005,5053 4996 C5049 4993,5052 4982,5059 4972 C5066 4962,5037 4990,4995 5033 C4953 5077,4911 5128,4901 5148 C4889 5175,4860 5201,4789 5247 C4737 5282,4685 5319,4673 5329 C4640 5358,4569 5397,4518 5414 C4492 5423,4441 5450,4404 5474 C4367 5498,4248 5559,4138 5610 C4029 5661,3943 5707,3946 5712 C3955 5726,3929 5739,3891 5739 C3873 5739,3850 5744,3841 5749 C3818 5761,3479 5827,3375 5840 C3326 5845,3290 5846,3290 5841 M2788 5766 C2770 5754,2793 5752,2961 5753 C3067 5754,3213 5751,3285 5747 C3409 5741,3412 5741,3362 5755 C3286 5776,2818 5785,2788 5766 M3440 5735 C3440 5731,3500 5717,3575 5704 C3590 5701,3606 5696,3611 5694 C3615 5691,3621 5693,3623 5698 C3626 5703,3611 5712,3589 5718 C3547 5730,3440 5743,3440 5735 M3857 5666 C3903 5642,3940 5637,3897 5660 C3876 5671,3853 5680,3845 5680 C3836 5680,3842 5673,3857 5666 M3957 5625 C3967 5617,3982 5610,3991 5610 C4000 5610,4024 5602,4044 5594 C4065 5585,4084 5581,4087 5584 C4090 5587,4084 5592,4073 5595 C4063 5598,4035 5610,4012 5620 C3959 5644,3931 5647,3957 5625 M4361 5421 C4387 5398,4440 5366,4440 5373 C4440 5376,4422 5392,4400 5409 C4356 5442,4326 5452,4361 5421 M850 4656 C839 4644,830 4628,830 4622 C830 4616,826 4610,822 4608 C817 4606,804 4591,793 4574 C765 4535,623 4261,637 4275 C648 4285,683 4345,729 4435 C754 4482,788 4539,799 4550 C802 4552,809 4562,815 4571 C820 4579,837 4605,852 4628 C882 4674,881 4693,850 4656 M395 3547 C363 3382,354 3011,384 3040 C386 3043,390 3144,394 3265 C397 3386,402 3504,404 3527 C410 3571,403 3586,395 3547 " />
<path d="M4205 5600 C4208 5594,4215 5590,4221 5590 C4227 5590,4257 5577,4288 5561 C4319 5545,4356 5529,4369 5525 C4422 5508,4370 5547,4309 5570 C4276 5582,4247 5596,4244 5601 C4242 5606,4231 5610,4220 5610 C4209 5610,4202 5605,4205 5600 " />
<path d="M1858 5585 C1852 5576,1851 5570,1856 5570 C1861 5570,1873 5576,1883 5585 C1897 5597,1897 5600,1885 5600 C1876 5600,1864 5593,1858 5585 " />
<path d="M3293 5300 C3284 5288,3271 5240,3263 5186 C3249 5092,3249 5092,3281 5056 C3301 5034,3322 5020,3336 5020 C3367 5020,3366 5026,3330 5060 C3303 5084,3300 5094,3300 5141 C3300 5171,3306 5221,3315 5253 C3323 5285,3330 5313,3330 5315 C3330 5327,3308 5317,3293 5300 " />
<path d="M2978 5290 C2978 5284,2976 5275,2975 5270 C2973 5264,2971 5248,2971 5234 C2970 5208,2970 5208,2942 5241 C2893 5301,2878 5303,2849 5257 C2828 5225,2828 5218,2845 5115 C2846 5104,2848 5088,2849 5080 C2850 5071,2857 5056,2865 5045 C2887 5016,2903 5044,2885 5079 C2867 5114,2856 5221,2869 5240 C2878 5252,2884 5250,2907 5225 C2938 5191,2980 5111,2980 5086 C2980 5077,2985 5070,2992 5070 C3008 5070,3005 5287,2990 5295 C2984 5297,2979 5295,2978 5290 " />
<path d="M3752 5268 C3742 5262,3720 5243,3702 5226 C3684 5209,3670 5201,3670 5208 C3670 5226,3623 5270,3605 5270 C3596 5270,3578 5258,3564 5245 C3513 5193,3549 5039,3614 5031 C3633 5029,3648 5034,3655 5044 C3662 5053,3673 5059,3681 5057 C3691 5055,3696 5073,3700 5125 C3702 5163,3708 5200,3713 5207 C3729 5232,3779 5250,3815 5244 C3853 5237,3857 5240,3835 5264 C3817 5282,3777 5284,3752 5268 M3569 5203 C3543 5135,3613 5027,3656 5070 C3685 5099,3634 5230,3595 5230 C3586 5230,3575 5217,3569 5203 " />
<path d="M2455 5224 C2430 5198,2425 5161,2443 5141 C2462 5120,2464 5088,2448 5072 C2432 5056,2445 5044,2463 5058 C2478 5071,2490 5055,2490 5021 C2490 4997,2544 4935,2557 4943 C2564 4947,2558 4967,2539 5002 C2523 5031,2510 5057,2510 5061 C2510 5064,2540 5069,2576 5073 C2679 5082,2680 5100,2577 5100 C2530 5100,2488 5103,2485 5108 C2483 5113,2477 5135,2474 5158 C2467 5200,2467 5200,2507 5200 C2529 5200,2566 5193,2588 5185 C2625 5172,2630 5172,2630 5185 C2630 5225,2486 5257,2455 5224 " />
<path d="M2141 5086 C2110 5071,2100 5052,2100 5013 C2100 4990,2099 4989,2070 5004 C2005 5038,1952 5008,1958 4942 C1960 4923,2020 4867,2080 4829 C2148 4785,2181 4786,2226 4833 C2262 4870,2262 4870,2220 4906 C2175 4945,2130 5009,2130 5034 C2130 5053,2170 5063,2220 5057 C2262 5051,2272 5062,2240 5079 C2204 5098,2170 5100,2141 5086 M1990 4978 C1976 4961,2003 4921,2062 4875 C2103 4843,2121 4835,2158 4835 C2182 4835,2204 4839,2206 4845 C2214 4868,2165 4912,2088 4950 C1999 4995,2003 4994,1990 4978 " />
<path d="M4062 5088 C4036 5070,4010 5036,4010 5019 C4010 5010,4005 4999,4000 4994 C3988 4981,3949 4877,3954 4871 C3965 4861,3990 4895,4010 4948 C4054 5067,4087 5093,4141 5051 C4154 5041,4174 5027,4186 5021 C4217 5005,4212 5030,4176 5069 C4147 5102,4095 5110,4062 5088 " />
<path d="M4990 5072 C4990 5068,5003 5049,5020 5030 C5041 5004,5049 4999,5049 5012 C5049 5022,5036 5041,5020 5055 C5003 5068,4990 5076,4990 5072 " />
<path d="M1090 5050 C1077 5024,1077 5017,1089 5024 C1105 5034,1121 5070,1110 5070 C1104 5070,1095 5061,1090 5050 " />
<path d="M1013 4970 C1004 4959,1001 4950,1007 4950 C1019 4950,1041 4978,1035 4985 C1032 4987,1022 4981,1013 4970 " />
<path d="M4240 4880 C4219 4859,4213 4840,4228 4840 C4233 4840,4240 4846,4243 4855 C4257 4891,4416 4859,4433 4816 C4440 4796,4419 4790,4353 4790 C4250 4790,4218 4752,4256 4673 C4288 4605,4341 4596,4371 4652 C4382 4672,4381 4673,4366 4661 C4340 4640,4301 4655,4283 4694 C4259 4745,4268 4756,4343 4763 C4456 4773,4498 4811,4447 4856 C4419 4881,4397 4888,4320 4895 C4269 4899,4256 4896,4240 4880 " />
<path d="M3072 4866 C3057 4858,3033 4841,3019 4828 C3004 4815,2965 4782,2930 4755 C2752 4611,2607 4339,2583 4103 C2578 4049,2574 4040,2561 4045 C2552 4049,2502 4067,2450 4085 C2316 4131,2224 4143,2072 4137 C1931 4131,1836 4110,1705 4055 C1661 4036,1614 4018,1602 4015 C1569 4005,1565 3971,1584 3848 C1612 3663,1675 3504,1770 3378 C1818 3314,1936 3195,1998 3149 C2032 3124,2032 3124,1967 3071 C1740 2891,1603 2624,1583 2322 C1577 2227,1578 2220,1595 2220 C1605 2220,1631 2209,1654 2196 C1716 2159,1877 2111,1981 2099 C2142 2079,2325 2103,2479 2164 C2514 2178,2546 2190,2550 2190 C2554 2190,2560 2161,2563 2127 C2578 1987,2654 1791,2743 1666 C2805 1579,2913 1474,2990 1424 C3026 1400,3061 1374,3068 1366 C3075 1358,3086 1352,3092 1354 C3114 1358,3160 1382,3160 1390 C3160 1394,3193 1422,3233 1453 C3274 1484,3328 1532,3353 1559 C3421 1631,3515 1782,3551 1874 C3585 1963,3619 2105,3619 2162 C3619 2183,3622 2200,3625 2200 C3628 2200,3648 2191,3669 2180 C3733 2147,3873 2111,3977 2100 C4154 2082,4329 2111,4509 2187 C4629 2237,4625 2231,4611 2342 C4592 2500,4542 2652,4472 2768 C4415 2862,4309 2981,4226 3046 C4151 3103,4151 3103,4213 3150 C4284 3204,4392 3316,4439 3384 C4535 3523,4605 3734,4616 3919 C4622 4026,4622 4026,4588 4034 C4545 4044,4554 4041,4485 4068 C4352 4120,4242 4140,4105 4140 C3959 4140,3877 4127,3750 4080 C3703 4062,3658 4046,3649 4043 C3637 4039,3632 4055,3622 4121 C3608 4226,3581 4309,3524 4425 C3450 4575,3340 4699,3160 4835 C3103 4877,3098 4879,3072 4866 M3010 4739 C2967 4706,2911 4656,2886 4629 C2749 4477,2657 4267,2642 4074 C2637 4003,2637 4003,2700 3957 C2735 3931,2764 3911,2766 3912 C2767 3914,2763 3948,2757 3988 C2749 4042,2749 4078,2757 4127 C2778 4252,2886 4434,3032 4595 C3087 4655,3087 4655,3110 4635 C3122 4624,3165 4576,3204 4529 C3398 4297,3467 4096,3411 3926 C3390 3864,3394 3857,3430 3895 C3443 3908,3480 3936,3512 3957 C3571 3995,3571 3995,3566 4076 C3557 4210,3481 4410,3394 4525 C3323 4620,3203 4731,3115 4785 C3090 4799,3087 4797,3010 4739 M3036 4561 C2850 4357,2760 4162,2781 4009 C2794 3913,2808 3880,2858 3825 C2905 3772,2993 3642,3027 3575 C3038 3553,3057 3526,3069 3515 C3090 3496,3090 3496,3131 3535 C3153 3557,3192 3606,3217 3645 C3242 3683,3277 3734,3296 3757 C3366 3843,3417 4000,3405 4088 C3390 4193,3344 4298,3261 4416 C3203 4498,3104 4610,3090 4610 C3084 4610,3060 4588,3036 4561 M3018 4452 C2897 4297,2839 4174,2833 4059 C2831 4004,2836 3981,2864 3910 C2899 3825,2977 3700,3048 3620 C3087 3575,3087 3575,3114 3599 C3154 3636,3253 3777,3287 3845 C3335 3939,3353 4013,3346 4082 C3339 4150,3307 4235,3258 4316 C3215 4387,3103 4530,3090 4530 C3084 4530,3052 4495,3018 4452 M3019 4412 C2986 4369,2938 4292,2912 4241 C2870 4157,2865 4139,2863 4073 C2860 3994,2876 3936,2922 3844 C2949 3791,3059 3637,3079 3625 C3086 3621,3100 3626,3111 3636 C3137 3659,3217 3774,3238 3817 C3246 3835,3257 3850,3262 3850 C3267 3850,3268 3854,3265 3860 C3261 3865,3262 3870,3267 3870 C3272 3870,3286 3899,3299 3934 C3317 3986,3321 4015,3318 4073 C3315 4137,3308 4159,3267 4241 C3226 4322,3119 4470,3090 4485 C3084 4487,3052 4455,3019 4412 M1938 4065 C1849 4043,1783 4021,1706 3986 C1637 3955,1637 3955,1643 3880 C1662 3629,1806 3372,2015 3214 C2088 3160,2088 3160,2151 3188 C2186 3204,2233 3223,2255 3230 C2295 3243,2295 3243,2235 3256 C2085 3291,1983 3381,1886 3567 C1820 3695,1752 3889,1770 3900 C1808 3923,2045 3959,2165 3959 C2328 3959,2441 3919,2536 3825 C2574 3788,2597 3772,2593 3784 C2589 3795,2584 3841,2580 3885 C2575 3965,2575 3965,2520 3992 C2411 4045,2303 4069,2145 4075 C2037 4078,1984 4076,1938 4065 M3908 4065 C3825 4045,3755 4021,3692 3992 C3636 3965,3635 3964,3626 3852 C3622 3800,3622 3800,3668 3842 C3762 3930,3896 3966,4085 3956 C4192 3950,4332 3929,4397 3908 C4435 3896,4435 3899,4382 3745 C4323 3575,4249 3449,4156 3361 C4089 3299,4022 3267,3920 3249 C3845 3237,3845 3237,3925 3210 C3969 3195,4024 3173,4047 3161 C4090 3139,4090 3139,4152 3181 C4374 3330,4527 3603,4555 3895 C4561 3966,4561 3966,4493 3997 C4371 4053,4295 4069,4125 4075 C4008 4078,3954 4076,3908 4065 M1908 3910 C1852 3899,1803 3887,1798 3882 C1787 3871,1842 3712,1894 3605 C1990 3406,2119 3295,2277 3274 C2350 3264,2730 3296,2760 3315 C2771 3322,2746 3396,2702 3485 C2681 3529,2652 3592,2639 3625 C2610 3699,2575 3751,2513 3811 C2415 3905,2340 3930,2145 3930 C2052 3930,1978 3923,1908 3910 M1995 3865 C1849 3843,1857 3849,1880 3782 C1946 3588,2066 3417,2173 3365 C2238 3333,2362 3316,2460 3324 C2562 3333,2673 3351,2683 3360 C2703 3378,2607 3604,2542 3691 C2457 3806,2386 3851,2255 3869 C2155 3883,2108 3882,1995 3865 M1973 3837 C1936 3830,1904 3819,1902 3812 C1898 3799,1911 3766,1975 3635 C2055 3469,2136 3392,2258 3363 C2327 3347,2479 3347,2580 3363 C2650 3374,2654 3376,2652 3399 C2648 3437,2572 3596,2522 3672 C2456 3773,2396 3816,2292 3838 C2222 3853,2056 3853,1973 3837 M3857 3916 C3736 3876,3634 3794,3604 3712 C3545 3550,3525 3506,3480 3435 C3452 3391,3430 3347,3430 3337 C3430 3314,3454 3305,3578 3284 C3722 3260,3931 3267,4012 3299 C4123 3342,4213 3437,4293 3595 C4338 3685,4402 3871,4392 3880 C4356 3914,3938 3942,3857 3916 M3931 3871 C3904 3866,3858 3854,3828 3844 C3718 3808,3597 3647,3519 3431 C3492 3357,3492 3357,3588 3341 C3829 3302,4000 3327,4096 3416 C4170 3484,4250 3619,4303 3766 C4333 3851,4343 3843,4185 3865 C4064 3882,4000 3883,3931 3871 M3879 3835 C3798 3810,3743 3773,3689 3704 C3621 3616,3518 3392,3541 3379 C3568 3362,3728 3347,3830 3352 C3916 3356,3948 3362,3993 3382 C4059 3413,4133 3484,4182 3565 C4226 3638,4293 3797,4286 3814 C4274 3845,3968 3861,3879 3835 M2645 3859 C2658 3714,2749 3496,2847 3375 C2895 3316,3044 3180,3061 3180 C3073 3180,3063 3266,3038 3365 C3004 3501,2932 3638,2831 3758 C2782 3816,2666 3920,2650 3920 C2643 3920,2642 3896,2645 3859 M3531 3897 C3341 3746,3247 3614,3181 3410 C3152 3321,3124 3182,3133 3173 C3135 3171,3165 3191,3201 3218 C3360 3339,3485 3525,3540 3724 C3559 3791,3575 3920,3565 3920 C3562 3920,3547 3909,3531 3897 M2467 3220 C2384 3207,2331 3193,2235 3157 C2163 3129,2158 3126,2175 3113 C2185 3105,2242 3084,2301 3065 C2515 2995,2757 3002,2969 3084 C2999 3096,3025 3110,3027 3116 C3035 3140,2843 3202,2712 3219 C2610 3232,2548 3232,2467 3220 M3467 3201 C3354 3184,3165 3125,3175 3109 C3184 3094,3348 3040,3436 3024 C3599 2993,3830 3019,3988 3085 C4025 3101,4025 3101,3996 3116 C3871 3183,3621 3223,3467 3201 M2042 3053 C1819 2884,1683 2651,1651 2385 C1644 2335,1640 2289,1640 2282 C1639 2248,1855 2174,2000 2158 C2168 2140,2371 2175,2510 2245 C2556 2268,2556 2268,2563 2346 C2566 2389,2572 2436,2576 2450 C2582 2471,2574 2467,2528 2423 C2437 2338,2323 2300,2160 2300 C2045 2300,1785 2341,1763 2362 C1753 2372,1813 2544,1859 2638 C1967 2857,2060 2953,2206 2995 C2265 3012,2265 3012,2227 3026 C2206 3033,2167 3051,2140 3065 C2090 3090,2090 3090,2042 3053 M4015 3037 C3951 3004,3951 3004,4010 2987 C4117 2955,4233 2838,4309 2686 C4345 2612,4379 2537,4385 2517 C4386 2513,4388 2507,4390 2505 C4391 2502,4393 2495,4395 2490 C4396 2484,4398 2478,4399 2477 C4400 2476,4402 2467,4404 2458 C4406 2448,4413 2424,4420 2404 C4426 2384,4428 2364,4423 2360 C4399 2338,4147 2299,4026 2300 C3859 2300,3735 2345,3649 2436 C3611 2476,3599 2485,3603 2468 C3607 2455,3613 2405,3616 2356 C3623 2255,3616 2262,3761 2211 C3877 2170,3950 2158,4080 2158 C4236 2158,4347 2182,4493 2247 C4552 2273,4552 2273,4546 2349 C4527 2593,4384 2848,4177 3006 C4087 3074,4088 3074,4015 3037 M3136 3002 C3157 2803,3250 2605,3391 2455 C3433 2411,3489 2359,3515 2340 C3563 2306,3563 2306,3556 2371 C3540 2526,3455 2730,3355 2857 C3308 2916,3151 3060,3135 3060 C3132 3060,3132 3034,3136 3002 M2990 3004 C2829 2881,2702 2688,2647 2485 C2628 2414,2614 2310,2624 2310 C2639 2310,2749 2401,2805 2461 C2879 2541,2930 2617,2980 2723 C3032 2835,3085 3050,3060 3050 C3054 3050,3023 3029,2990 3004 M2225 2976 C2150 2952,2095 2921,2046 2874 C1986 2817,1911 2702,1875 2613 C1860 2575,1844 2536,1839 2525 C1817 2468,1792 2379,1798 2376 C1814 2366,1973 2339,2063 2330 C2301 2308,2462 2366,2575 2514 C2588 2531,2612 2581,2630 2625 C2647 2669,2677 2731,2696 2763 C2716 2795,2740 2847,2749 2879 C2772 2953,2776 2951,2603 2955 C2531 2957,2440 2966,2401 2974 C2313 2993,2282 2993,2225 2976 M2301 2931 C2191 2911,2147 2889,2080 2820 C2002 2741,1959 2671,1903 2530 C1871 2450,1864 2423,1874 2417 C1881 2413,1944 2403,2014 2393 C2161 2374,2294 2383,2373 2418 C2467 2459,2557 2566,2625 2715 C2675 2825,2695 2890,2679 2900 C2643 2922,2376 2944,2301 2931 M2247 2894 C2135 2861,2059 2791,1985 2650 C1944 2572,1898 2450,1904 2440 C1907 2435,1954 2426,2008 2419 C2113 2406,2270 2411,2331 2429 C2448 2464,2538 2576,2640 2815 C2660 2862,2661 2878,2642 2883 C2552 2912,2327 2918,2247 2894 M3832 2973 C3799 2962,3733 2956,3615 2952 C3521 2950,3441 2944,3436 2940 C3424 2928,3456 2824,3489 2765 C3505 2737,3534 2675,3555 2627 C3605 2509,3689 2417,3786 2372 C3874 2331,3993 2317,4129 2329 C4232 2339,4380 2366,4391 2378 C4396 2383,4355 2525,4349 2525 C4348 2525,4346 2533,4344 2543 C4337 2580,4258 2735,4214 2796 C4114 2936,3948 3013,3832 2973 M3707 2935 C3695 2932,3648 2925,3604 2919 C3560 2913,3517 2904,3510 2900 C3492 2889,3507 2847,3580 2692 C3675 2492,3768 2412,3936 2388 C4015 2377,4134 2382,4239 2401 C4336 2418,4331 2411,4305 2487 C4274 2578,4210 2703,4161 2768 C4112 2833,4065 2874,4007 2899 C3942 2928,3770 2948,3707 2935 M3610 2896 C3571 2889,3537 2881,3534 2877 C3525 2869,3595 2704,3641 2627 C3732 2473,3819 2420,4001 2412 C4119 2406,4278 2425,4286 2444 C4292 2460,4229 2612,4185 2687 C4113 2808,4040 2869,3933 2896 C3865 2913,3700 2913,3610 2896 M3061 2717 C3046 2699,3014 2651,2991 2609 C2967 2568,2919 2499,2883 2457 C2806 2365,2779 2297,2777 2195 C2776 2125,2800 2026,2837 1955 C2868 1894,2972 1749,3029 1688 C3088 1625,3088 1625,3139 1675 C3166 1702,3189 1727,3189 1731 C3189 1734,3204 1753,3222 1773 C3269 1824,3348 1958,3374 2031 C3435 2200,3411 2323,3285 2484 C3255 2523,3216 2580,3200 2612 C3183 2644,3152 2688,3130 2710 C3090 2750,3090 2750,3061 2717 M3040 2609 C2892 2430,2820 2273,2832 2155 C2839 2086,2883 1983,2942 1892 C2989 1819,3078 1710,3090 1710 C3095 1710,3196 1825,3217 1855 C3292 1961,3350 2109,3349 2194 C3349 2290,3260 2473,3155 2595 C3090 2670,3090 2670,3040 2609 M3064 2597 C3056 2585,3023 2541,2992 2499 C2812 2263,2819 2093,3020 1828 C3053 1785,3084 1750,3089 1750 C3109 1750,3223 1909,3267 1998 C3308 2079,3315 2102,3318 2165 C3324 2285,3281 2385,3150 2554 C3122 2590,3095 2620,3090 2620 C3084 2620,3073 2609,3064 2597 M3414 2297 C3438 2214,3434 2127,3401 2032 C3360 1915,3244 1737,3145 1640 C3090 1585,3090 1585,3034 1640 C3004 1670,2951 1733,2918 1780 C2775 1980,2722 2156,2763 2292 C2771 2318,2776 2340,2774 2340 C2771 2340,2749 2324,2724 2305 C2700 2286,2665 2262,2648 2252 C2617 2235,2617 2235,2623 2152 C2629 2056,2682 1888,2735 1792 C2806 1665,2914 1547,3035 1464 C3090 1426,3090 1426,3147 1465 C3380 1625,3537 1891,3556 2160 C3562 2235,3562 2235,3501 2277 C3467 2300,3431 2326,3420 2335 C3400 2349,3400 2349,3414 2297 " />
<path d="M4960 4869 C4960 4863,4984 4832,5014 4801 C5044 4770,5069 4750,5069 4757 C5069 4764,5045 4794,5015 4825 C4984 4855,4960 4875,4960 4869 " />
<path d="M1745 4817 C1757 4717,1761 4570,1752 4570 C1741 4570,1669 4645,1600 4727 C1564 4771,1554 4777,1547 4764 C1540 4752,1564 4721,1650 4629 C1711 4563,1767 4510,1774 4510 C1786 4510,1787 4643,1775 4745 C1769 4801,1759 4807,1867 4683 C1918 4623,1954 4601,1924 4647 C1914 4662,1893 4690,1878 4710 C1862 4729,1832 4767,1810 4794 C1788 4822,1770 4848,1770 4852 C1770 4856,1763 4860,1755 4860 C1743 4860,1741 4850,1745 4817 " />
<path d="M5130 4694 C5130 4691,5137 4678,5146 4664 C5155 4651,5159 4640,5155 4640 C5151 4640,5156 4626,5166 4610 C5176 4593,5187 4580,5192 4580 C5209 4580,5198 4628,5175 4658 C5150 4688,5130 4705,5130 4694 " />
<path d="M765 4653 C757 4642,759 4630,768 4630 C773 4630,780 4636,783 4645 C789 4659,774 4666,765 4653 " />
<path d="M5380 4594 C5380 4587,5485 4379,5524 4311 C5541 4280,5566 4229,5579 4197 C5600 4146,5620 4123,5620 4148 C5620 4169,5556 4309,5510 4388 C5482 4436,5460 4479,5460 4484 C5460 4501,5400 4600,5390 4600 C5384 4600,5380 4597,5380 4594 " />
<path d="M5230 4524 C5230 4513,5283 4440,5291 4440 C5295 4440,5288 4460,5274 4485 C5261 4509,5245 4530,5240 4530 C5234 4530,5230 4527,5230 4524 " />
<path d="M5390 4237 C5390 4223,5413 4190,5423 4190 C5438 4190,5428 4221,5410 4235 C5395 4245,5390 4246,5390 4237 " />
<path d="M5480 4101 C5480 4096,5489 4057,5500 4014 C5511 3970,5529 3890,5540 3835 C5551 3780,5566 3708,5574 3675 C5581 3642,5593 3581,5600 3540 C5607 3498,5618 3442,5625 3415 C5635 3375,5647 3200,5649 3060 C5649 3049,5653 3049,5660 3056 C5676 3072,5680 3153,5669 3235 C5663 3273,5657 3336,5654 3375 C5646 3492,5619 3701,5603 3770 C5595 3805,5588 3839,5588 3845 C5587 3850,5583 3865,5578 3878 C5574 3890,5567 3915,5564 3933 C5561 3950,5543 3997,5524 4037 C5492 4104,5480 4122,5480 4101 " />
<path d="M5760 3667 C5760 3655,5767 3622,5775 3595 C5790 3545,5790 3545,5785 3597 C5779 3654,5759 3711,5760 3667 " />
<path d="M5775 3524 C5772 3515,5776 3498,5785 3486 C5799 3466,5800 3466,5800 3497 C5800 3532,5783 3550,5775 3524 " />
<path d="M5796 3442 C5789 3429,5801 3370,5811 3370 C5823 3370,5822 3416,5810 3435 C5804 3443,5798 3446,5796 3442 " />
<path d="M5666 3402 C5665 3398,5669 3361,5675 3320 C5687 3245,5687 3245,5688 3312 C5689 3370,5676 3425,5666 3402 " />
<path d="M5040 3243 C5040 3230,5042 3229,5055 3240 C5063 3246,5070 3254,5070 3256 C5070 3258,5063 3260,5055 3260 C5046 3260,5040 3252,5040 3243 " />
<path d="M5595 2611 C5592 2606,5587 2583,5583 2559 C5580 2534,5573 2507,5568 2498 C5563 2488,5563 2478,5569 2475 C5579 2469,5597 2521,5605 2582 C5609 2617,5605 2630,5595 2611 " />
<path d="M5575 2425 C5566 2406,5560 2381,5560 2370 C5560 2359,5551 2342,5541 2332 C5517 2309,5475 2190,5487 2178 C5502 2163,5519 2193,5554 2296 C5588 2397,5603 2460,5595 2460 C5592 2460,5583 2444,5575 2425 " />
<path d="M475 2141 C468 2128,489 2070,500 2070 C505 2070,510 2076,510 2085 C510 2105,481 2152,475 2141 " />
<path d="M1444 2059 C1440 2045,1455 2019,1498 1964 C1552 1898,1630 1759,1630 1730 C1630 1724,1643 1689,1660 1653 C1692 1582,1691 1558,1658 1600 C1614 1655,1567 1699,1559 1694 C1554 1691,1550 1676,1550 1661 C1550 1640,1569 1616,1640 1550 C1689 1504,1730 1460,1730 1452 C1730 1444,1736 1423,1744 1406 C1770 1350,1802 1207,1814 1092 C1820 1031,1828 978,1832 974 C1848 958,1860 985,1860 1038 C1860 1070,1864 1120,1869 1150 C1874 1180,1881 1230,1885 1262 C1891 1323,1899 1330,1927 1302 C1937 1292,1965 1272,1990 1256 C2014 1240,2044 1218,2056 1207 C2071 1194,2080 1192,2084 1199 C2096 1218,2065 1254,1983 1317 C1905 1377,1905 1377,1907 1431 C1910 1476,1923 1587,1932 1633 C1933 1639,1928 1644,1920 1644 C1903 1645,1885 1581,1875 1485 C1871 1449,1864 1420,1858 1420 C1853 1420,1824 1443,1795 1472 C1746 1519,1739 1532,1720 1604 C1709 1647,1691 1697,1681 1714 C1671 1731,1659 1758,1655 1775 C1649 1802,1631 1839,1586 1925 C1555 1983,1479 2080,1465 2080 C1456 2080,1447 2070,1444 2059 M1785 1392 C1794 1367,1820 1270,1829 1235 C1836 1205,1836 1205,1842 1230 C1846 1243,1851 1276,1855 1302 C1861 1346,1859 1352,1830 1380 C1796 1413,1776 1418,1785 1392 " />
<path d="M4365 1864 C4345 1851,4330 1835,4330 1830 C4330 1802,4356 1759,4397 1721 C4437 1685,4441 1679,4420 1684 C4406 1687,4342 1692,4278 1696 C4169 1702,4161 1701,4141 1681 C4098 1638,4121 1582,4223 1487 C4295 1420,4295 1420,4250 1418 C4148 1415,4088 1430,4020 1479 C3948 1530,3953 1482,4027 1399 C4059 1364,4076 1339,4065 1344 C3930 1400,3869 1411,3834 1385 C3819 1374,3815 1360,3815 1320 C3816 1292,3814 1270,3813 1270 C3811 1270,3791 1281,3769 1295 C3711 1331,3673 1337,3665 1311 C3659 1292,3653 1290,3601 1295 C3498 1305,3461 1256,3492 1152 C3507 1100,3507 1100,3476 1121 C3459 1133,3418 1165,3386 1192 C3314 1254,3300 1247,3324 1164 C3333 1133,3348 1096,3357 1083 C3365 1070,3370 1056,3367 1053 C3356 1043,3324 1069,3235 1159 C3185 1209,3141 1249,3137 1249 C3123 1250,3130 1195,3150 1140 C3174 1079,3179 1077,3080 1161 C3049 1186,3004 1218,2978 1232 C2932 1258,2932 1258,2906 1231 C2891 1216,2880 1195,2880 1186 C2880 1172,2871 1175,2837 1203 C2763 1263,2688 1289,2677 1258 C2673 1245,2609 1285,2515 1357 C2475 1388,2462 1406,2443 1460 C2385 1617,2323 1730,2294 1730 C2276 1730,2276 1718,2293 1655 C2309 1595,2351 1503,2394 1435 C2431 1376,2448 1336,2460 1283 C2468 1245,2468 1245,2447 1273 C2409 1325,2365 1366,2326 1383 C2291 1400,2286 1400,2264 1385 C2250 1376,2240 1361,2240 1351 C2240 1315,2226 1320,2194 1367 C2149 1432,2045 1540,2025 1540 C1992 1540,2012 1508,2098 1423 C2169 1353,2194 1319,2222 1260 C2241 1218,2260 1168,2264 1148 C2267 1128,2277 1106,2285 1099 C2309 1080,2313 1110,2295 1177 C2277 1247,2275 1315,2290 1325 C2339 1355,2488 1195,2529 1067 C2540 1033,2557 1020,2572 1036 C2576 1039,2570 1065,2560 1093 C2550 1121,2532 1178,2519 1220 C2507 1261,2494 1300,2492 1307 C2489 1315,2516 1302,2551 1280 C2587 1258,2630 1237,2647 1233 C2665 1230,2680 1221,2680 1214 C2680 1186,2731 1105,2771 1070 C2867 987,2923 961,2936 995 C2943 1014,2921 1041,2900 1037 C2863 1029,2702 1185,2724 1207 C2734 1217,2816 1172,2860 1133 C2883 1112,2915 1076,2931 1053 C2958 1013,2990 995,2990 1020 C2990 1025,2976 1054,2960 1083 C2926 1142,2922 1174,2945 1183 C2977 1196,3041 1151,3185 1016 C3223 979,3258 950,3262 950 C3274 949,3271 973,3256 995 C3243 1015,3188 1139,3193 1140 C3194 1140,3220 1116,3251 1087 C3314 1027,3430 956,3442 968 C3447 973,3432 1013,3409 1058 C3386 1103,3369 1142,3372 1145 C3374 1147,3394 1135,3415 1117 C3461 1078,3573 1010,3589 1010 C3605 1010,3602 1035,3585 1049 C3576 1056,3570 1068,3570 1075 C3570 1082,3562 1090,3553 1094 C3544 1097,3539 1103,3543 1106 C3546 1109,3543 1124,3535 1138 C3507 1194,3543 1240,3615 1240 C3654 1240,3663 1235,3704 1192 C3775 1115,3880 1071,3913 1104 C3928 1119,3928 1124,3910 1172 C3899 1200,3886 1226,3880 1229 C3875 1233,3868 1251,3864 1271 C3856 1324,3894 1352,3955 1336 C3991 1327,4074 1292,4120 1266 C4205 1216,4212 1237,4138 1322 C4086 1382,4080 1401,4121 1379 C4133 1372,4183 1366,4231 1366 C4301 1365,4322 1368,4335 1381 C4351 1397,4351 1400,4331 1427 C4320 1443,4281 1482,4245 1514 C4176 1574,4158 1609,4181 1636 C4192 1650,4211 1651,4319 1646 C4388 1642,4473 1637,4507 1633 C4547 1630,4570 1631,4570 1638 C4570 1649,4533 1676,4485 1700 C4470 1708,4438 1731,4415 1751 C4361 1800,4371 1819,4463 1839 C4530 1853,4543 1867,4501 1882 C4457 1897,4401 1890,4365 1864 M3753 1196 C3766 1182,3790 1164,3807 1156 C3846 1136,3891 1134,3884 1153 C3878 1167,3796 1206,3755 1215 C3730 1220,3730 1220,3753 1196 " />
<path d="M5485 1814 C5475 1785,5479 1777,5495 1790 C5511 1804,5515 1830,5500 1830 C5494 1830,5487 1822,5485 1814 " />
<path d="M5406 1677 C5369 1624,5320 1540,5320 1529 C5320 1510,5337 1529,5382 1597 C5441 1687,5462 1755,5406 1677 " />
<path d="M4704 1539 C4695 1524,4718 1500,4741 1500 C4763 1500,4765 1513,4745 1534 C4727 1552,4712 1554,4704 1539 " />
<path d="M5023 1185 C4965 1121,4923 1069,4931 1069 C4945 1069,5150 1276,5150 1291 C5150 1314,5121 1290,5023 1185 " />
<path d="M1140 1131 C1140 1127,1151 1112,1165 1100 C1183 1082,1190 1080,1190 1091 C1190 1100,1181 1114,1170 1123 C1147 1141,1140 1144,1140 1131 " />
<path d="M1270 1041 C1270 1028,1299 1005,1305 1013 C1307 1017,1301 1026,1290 1035 C1279 1043,1270 1046,1270 1041 " />
<path d="M1370 951 C1370 937,1401 904,1431 885 C1472 860,1480 886,1441 916 C1400 947,1370 962,1370 951 " />
<path d="M1591 794 C1607 774,1660 746,1660 759 C1660 770,1605 810,1590 810 C1584 810,1584 803,1591 794 " />
</g>

</svg>